<?xml version="1.0" encoding="utf-8"?>
<svg width="648px" height="633px" viewBox="0 0 648 633" version="1.1" xmlns:xlink="http://www.w3.org/1999/xlink" xmlns="http://www.w3.org/2000/svg">
  <desc>Created with Lunacy</desc>
  <defs>
    <path d="M0 0L647.636 0L647.636 632.174L0 632.174L0 0Z" id="path_1" />
    <clipPath id="mask_1">
      <use xlink:href="#path_1" />
    </clipPath>
  </defs>
  <g id="noData">
    <path d="M0 0L647.636 0L647.636 632.174L0 632.174L0 0Z" id="Background" fill="none" fill-rule="evenodd" stroke="none" />
    <g clip-path="url(#mask_1)">
      <path d="M372.001 113.973L197.491 113.973C189.211 113.984 182.501 120.693 182.491 128.973L182.491 516.823L180.491 517.433L137.681 530.543C133.457 531.832 128.987 529.456 127.691 525.233L0.351185 109.283C-0.93922 105.059 1.43746 100.587 5.66124 99.2934L71.6315 79.0935L262.881 20.5535L328.851 0.353462C330.879 -0.270561 333.071 -0.0625381 334.945 0.931694C336.819 1.92593 338.221 3.6247 338.841 5.65347L371.391 111.973L372.001 113.973Z" transform="translate(39.144928 28.200378)" id="Shape" fill="#F2F2F2" fill-rule="evenodd" stroke="none" />
      <path d="M449.225 140.166L409.995 12.0257C408.677 7.71373 405.699 4.1024 401.717 1.98677C397.735 -0.128843 393.076 -0.5753 388.765 0.745699L296.015 29.1357L104.775 87.6857L12.0251 116.086C3.05362 118.841 -1.99335 128.339 0.744781 137.316L134.825 575.246C137.018 582.389 143.612 587.268 151.085 587.276C152.77 587.277 154.445 587.024 156.055 586.526L219.635 567.066L221.635 566.446L221.635 564.356L219.635 564.966L155.465 584.616C147.546 587.03 139.168 582.579 136.735 574.666L2.66516 136.726C1.49597 132.923 1.88791 128.81 3.75452 125.297C5.62109 121.783 8.80899 119.156 12.6149 117.996L105.365 89.5957L296.605 31.0557L389.355 2.65572C390.784 2.21951 392.27 1.9971 393.765 1.99571C400.348 2.01048 406.154 6.31204 408.085 12.6057L447.135 140.166L447.755 142.166L449.835 142.166L449.225 140.166Z" transform="translate(0.0013427734 0.008132935)" id="Shape" fill="#343A40" fill-rule="evenodd" stroke="none" />
      <path d="M21.8862 113.937C17.9297 113.934 14.4374 111.352 13.2748 107.57L0.394508 65.4986C-0.304497 63.2162 -0.0680771 60.7496 1.05177 58.6416C2.17164 56.5336 4.08317 54.9569 6.3657 54.2584L182.305 0.394615C187.057 -1.05556 192.086 1.61578 193.545 6.36532L206.426 48.4376C207.875 53.1898 205.204 58.2183 200.455 59.6783L24.5156 113.542C23.6636 113.804 22.7774 113.937 21.8862 113.937L21.8862 113.937Z" transform="translate(100.79471 13.8836975)" id="Shape" fill="#28A745" fill-rule="evenodd" stroke="none" />
      <path d="M0 20C0 8.9543 8.9543 0 20 0C31.0457 0 40 8.9543 40 20C40 31.0457 31.0457 40 20 40C8.9543 40 0 31.0457 0 20Z" transform="translate(170.1535 4.954651)" id="Circle" fill="#28A745" fill-rule="evenodd" stroke="none" />
      <path d="M0 12.6646C0 5.67014 5.67014 0 12.6646 0C19.6591 0 25.3292 5.67014 25.3292 12.6646C25.3292 19.6591 19.6591 25.3292 12.6646 25.3292C5.67014 25.3292 0 19.6591 0 12.6646Z" transform="translate(177.48889 12.290024)" id="Circle" fill="#FFFFFF" fill-rule="evenodd" stroke="none" />
      <path d="M346.5 422L8.5 422C3.80786 421.995 0.00543213 418.192 0 413.5L0 8.5C0.00537109 3.8075 3.80798 0.00509644 8.50024 0L346.5 0C351.192 0.00543213 354.995 3.80783 355 8.5L355 413.5C354.995 418.192 351.193 421.994 346.5 422L346.5 422Z" transform="translate(256.13647 160.17383)" id="Shape" fill="#E6E6E6" fill-rule="evenodd" stroke="none" />
      <path d="M227.5 0L17 0C7.61667 0.0133057 0.0133057 7.61667 0 17L0 424.8L2 424.19L2 17C2.00989 8.72021 8.71957 2.01025 16.9997 2L228.12 2L227.5 0ZM411 0L17 0C7.61667 0.0133057 0.0133057 7.61667 0 17L0 475C0.0133972 484.383 7.61685 491.987 17.0002 492L411 492C420.383 491.987 427.987 484.383 428 475L428 17C427.987 7.61655 420.383 0.0132141 411 0L411 0ZM426 475C425.99 483.28 419.28 489.99 411 490L17 490C8.71988 489.99 2.01004 483.28 1.99997 475L2 17C2.00989 8.72021 8.71957 2.01025 16.9997 2L411 2C419.28 2.01007 425.99 8.71991 426 17L426 475Z" transform="translate(219.63623 140.17383)" id="Shape" fill="#343A40" fill-rule="evenodd" stroke="none" />
      <path d="M193 62L9 62C4.03174 61.9944 0.0055542 57.9683 0 53L0 9C0.00567627 4.03162 4.03192 0.00552368 9.00012 0L193 0C197.968 0.00561523 201.994 4.03177 202 9L202 53C201.994 57.9684 197.968 61.9945 193 62L193 62Z" transform="translate(332.63647 122.17383)" id="Shape" fill="#28A745" fill-rule="evenodd" stroke="none" />
      <path d="M0 20C0 8.9543 8.9543 0 20 0C31.0457 0 40 8.9543 40 20C40 31.0457 31.0457 40 20 40C8.9543 40 0 31.0457 0 20Z" transform="translate(413.63623 85.17383)" id="Circle" fill="#28A745" fill-rule="evenodd" stroke="none" />
      <path d="M0 12.1819C0 5.45401 5.45401 0 12.1819 0C18.9097 0 24.3637 5.45401 24.3637 12.1819C24.3637 18.9097 18.9097 24.3637 12.1819 24.3637C5.45401 24.3637 0 18.9097 0 12.1819Z" transform="translate(421.45435 92.99194)" id="Circle" fill="#FFFFFF" fill-rule="evenodd" stroke="none" />
    </g>
  </g>
</svg>